<?xml version="1.0" encoding="UTF-8"?>
<svg id="Layer_2" xmlns="http://www.w3.org/2000/svg" viewBox="0 0 1331.8 826.47">
  <defs>
    <style>
      .cls-1 {
        fill: none;
        stroke-width: 50px;
      }

      .cls-1, .cls-2 {
        stroke: white;
        stroke-miterlimit: 10;
      }

      .cls-2 {
        fill: white;
        stroke-width: 22px;
      }
    </style>
  </defs>
  <g id="Layer_1-2" data-name="Layer_1">
    <ellipse class="cls-1" cx="324.81" cy="413.24" rx="299.81" ry="388.24"/>
    <path class="cls-2" d="M485.05,336.75c-.57,30.73-26.22,55.48-57.8,55.48s-57.82-25.31-57.82-56.52,25.89-56.52,57.82-56.52c9.86,0,19.13,2.42,27.26,6.67-15.36-16.56-33.43-26.11-52.77-26.11-45.7,0-84.32,53.32-96.86,126.52l88.58,44.91s-52.09,27.36-90.24,46.97c10.42,78.77,50.57,137.47,98.52,137.47,55.87,0,101.15-79.66,101.15-177.93,0-37.48-6.59-72.24-17.84-100.92Z"/>
    <path class="cls-2" d="M534.38,382.31c-11.13-148.82-100.7-264.81-209.56-264.81S126.77,232.98,115.33,381.33c17.2-16.64,211.27-195.32,419.05.98Z"/>
    <ellipse class="cls-1" cx="1006.99" cy="413.24" rx="299.81" ry="388.24"/>
    <path class="cls-2" d="M1167.24,336.75c-.57,30.73-26.22,55.48-57.8,55.48s-57.82-25.31-57.82-56.52,25.89-56.52,57.82-56.52c9.86,0,19.13,2.42,27.26,6.67-15.36-16.56-33.43-26.11-52.77-26.11-45.7,0-84.32,53.32-96.86,126.52l88.58,44.91s-52.09,27.36-90.24,46.97c10.42,78.77,50.57,137.47,98.52,137.47,55.87,0,101.15-79.66,101.15-177.93,0-37.48-6.59-72.24-17.84-100.92Z"/>
    <path class="cls-2" d="M1216.56,382.31c-11.13-148.82-100.7-264.81-209.56-264.81s-198.04,115.48-209.49,263.82c17.2-16.64,211.27-195.32,419.05.98Z"/>
  </g>
</svg>