<?xml version="1.0" encoding="UTF-8"?>
<svg id="Layer_2" xmlns="http://www.w3.org/2000/svg" viewBox="0 0 1318.38 826.47">
  <defs>
    <style>
      .cls-1 {
        fill: none;
        stroke-width: 50px;
      }

      .cls-1, .cls-2 {
        stroke: white;
        stroke-miterlimit: 10;
      }

      .cls-2 {
        fill: white;
        stroke-width: 22px;
      }
    </style>
  </defs>
  <g id="Layer_1-2" data-name="Layer_1">
    <ellipse class="cls-1" cx="324.81" cy="413.24" rx="299.81" ry="388.24"/>
    <path class="cls-2" d="M401.74,259.74c-45.7,0-84.32,53.32-96.86,126.52l88.58,44.91s-52.09,27.36-90.24,46.97c10.42,78.77,50.57,137.47,98.52,137.47,55.87,0,101.15-79.66,101.15-177.93s-45.29-177.93-101.15-177.93Z"/>
    <ellipse class="cls-1" cx="993.57" cy="413.24" rx="299.81" ry="388.24"/>
    <path class="cls-2" d="M1070.5,259.74c-45.7,0-84.32,53.32-96.86,126.52l88.58,44.91s-52.09,27.36-90.24,46.97c10.42,78.77,50.57,137.47,98.52,137.47,55.87,0,101.15-79.66,101.15-177.93s-45.29-177.93-101.15-177.93Z"/>
  </g>
</svg>