<?xml version="1.0" encoding="UTF-8"?>
<svg id="Layer_2" xmlns="http://www.w3.org/2000/svg" viewBox="0 0 1053.61 517.54" fill="#262626">
  <g id="Layer_1-2" data-name="Layer_1">
    <g>
      <path d="M258.5,506c-66.11,0-128.26-25.74-175.01-72.49-46.75-46.75-72.49-108.9-72.49-175.01s25.74-128.26,72.49-175.01S192.39,11,258.5,11s128.26,25.74,175.01,72.49,72.49,108.9,72.49,175.01-25.74,128.26-72.49,175.01c-46.75,46.75-108.9,72.49-175.01,72.49Z"/>
      <path d="M258.5,22c31.94,0,62.91,6.25,92.05,18.58,28.16,11.91,53.45,28.97,75.18,50.69,21.73,21.73,38.78,47.02,50.69,75.18,12.33,29.14,18.58,60.11,18.58,92.05s-6.25,62.91-18.58,92.05c-11.91,28.16-28.97,53.45-50.69,75.18-21.73,21.73-47.02,38.78-75.18,50.69-29.14,12.33-60.11,18.58-92.05,18.58s-62.91-6.25-92.05-18.58c-28.16-11.91-53.45-28.97-75.18-50.69-21.73-21.73-38.78-47.02-50.69-75.18-12.33-29.14-18.58-60.11-18.58-92.05s6.25-62.91,18.58-92.05c11.91-28.16,28.97-53.45,50.69-75.18,21.73-21.73,47.02-38.78,75.18-50.69,29.14-12.33,60.11-18.58,92.05-18.58M258.5,0C115.73,0,0,115.73,0,258.5s115.73,258.5,258.5,258.5,258.5-115.73,258.5-258.5S401.27,0,258.5,0h0Z"/>
    </g>
    <g>
      <path d="M795.11,506.54c-66.11,0-128.26-25.74-175.01-72.49-46.75-46.75-72.49-108.9-72.49-175.01s25.74-128.26,72.49-175.01c46.75-46.75,108.9-72.49,175.01-72.49s128.26,25.74,175.01,72.49c46.75,46.75,72.49,108.9,72.49,175.01s-25.74,128.26-72.49,175.01c-46.75,46.75-108.9,72.49-175.01,72.49Z"/>
      <path d="M795.11,22.54c31.94,0,62.91,6.25,92.05,18.58,28.16,11.91,53.45,28.97,75.18,50.69,21.73,21.73,38.78,47.02,50.69,75.18,12.33,29.14,18.58,60.11,18.58,92.05s-6.25,62.91-18.58,92.05c-11.91,28.16-28.97,53.45-50.69,75.18-21.73,21.73-47.02,38.78-75.18,50.69-29.14,12.33-60.11,18.58-92.05,18.58s-62.91-6.25-92.05-18.58c-28.16-11.91-53.45-28.97-75.18-50.69-21.73-21.73-38.78-47.02-50.69-75.18-12.33-29.14-18.58-60.11-18.58-92.05s6.25-62.91,18.58-92.05c11.91-28.16,28.97-53.45,50.69-75.18s47.02-38.78,75.18-50.69c29.14-12.33,60.11-18.58,92.05-18.58M795.11.54c-142.77,0-258.5,115.73-258.5,258.5s115.73,258.5,258.5,258.5,258.5-115.73,258.5-258.5S937.87.54,795.11.54h0Z"/>
    </g>
  </g>
</svg>