<?xml version="1.0" encoding="UTF-8"?>
<svg id="Layer_2" xmlns="http://www.w3.org/2000/svg" viewBox="0 0 1163.02 840.51">
  <defs>
    <style>
      .cls-1 {
        fill: none;
        stroke-width: 50px;
      }

      .cls-1, .cls-2 {
        stroke: #262626;
        stroke-miterlimit: 10;
      }

      .cls-2 {
        fill: #262626;
        stroke-width: 22px;
      }
    </style>
  </defs>
  <g id="Layer_1-2" data-name="Layer_1">
    <ellipse class="cls-1" cx="287.61" cy="425.86" rx="262.61" ry="389.66"/>
    <path class="cls-2" d="M374.84,229.24c-51.83,0-95.62,60.25-109.84,142.97l100.45,50.75s-59.07,30.91-102.34,53.08c11.81,89.01,57.35,155.34,111.73,155.34,63.35,0,114.71-90.02,114.71-201.06s-51.36-201.06-114.71-201.06Z"/>
    <ellipse class="cls-1" cx="875.41" cy="414.66" rx="262.61" ry="389.66"/>
    <path class="cls-2" d="M962.64,218.04c-51.83,0-95.62,60.25-109.84,142.97l100.45,50.75s-59.07,30.91-102.34,53.08c11.81,89.01,57.35,155.34,111.73,155.34,63.35,0,114.71-90.02,114.71-201.06s-51.36-201.06-114.71-201.06Z"/>
    <path class="cls-2" d="M548.77,389.13c-13.86-195.84-125.5-348.47-261.16-348.47S40.81,192.61,26.55,387.83c21.43-21.89,263.28-257.03,522.22,1.29Z"/>
    <path class="cls-2" d="M1136.52,392.28c-13.86-195.84-125.5-348.47-261.16-348.47s-246.8,151.96-261.06,347.18c21.43-21.89,263.28-257.03,522.22,1.29Z"/>
  </g>
</svg>