<?xml version="1.0" encoding="UTF-8"?>
<svg id="Layer_2" xmlns="http://www.w3.org/2000/svg" viewBox="0 0 1053.61 517.54" fill="#262626">
  <g id="Layer_1-2" data-name="Layer_1">
    <path d="M258.5,22c31.94,0,62.91,6.25,92.05,18.58,28.16,11.91,53.45,28.97,75.18,50.69,21.73,21.73,38.78,47.02,50.69,75.18,12.33,29.14,18.58,60.11,18.58,92.05s-6.25,62.91-18.58,92.05c-11.91,28.16-28.97,53.45-50.69,75.18-21.73,21.73-47.02,38.78-75.18,50.69-29.14,12.33-60.11,18.58-92.05,18.58s-62.91-6.25-92.05-18.58c-28.16-11.91-53.45-28.97-75.18-50.69-21.73-21.73-38.78-47.02-50.69-75.18-12.33-29.14-18.58-60.11-18.58-92.05s6.25-62.91,18.58-92.05c11.91-28.16,28.97-53.45,50.69-75.18,21.73-21.73,47.02-38.78,75.18-50.69,29.14-12.33,60.11-18.58,92.05-18.58M258.5,0C115.73,0,0,115.73,0,258.5s115.73,258.5,258.5,258.5,258.5-115.73,258.5-258.5S401.27,0,258.5,0h0Z"/>
    <g>
      <path d="M3.52,255.5c.77-66.99,27.22-129.86,74.67-177.31C126.35,30.02,190.39,3.5,258.5,3.5s132.15,26.52,180.31,74.69c47.46,47.45,73.9,110.32,74.67,177.31H3.52Z"/>
      <path d="M258.5,7c33.96,0,66.89,6.65,97.89,19.76,29.95,12.67,56.84,30.8,79.94,53.9,23.1,23.1,41.23,50,53.9,79.94,12.27,29.02,18.89,59.73,19.68,91.39H7.08c.79-31.66,7.41-62.37,19.68-91.39,12.67-29.95,30.8-56.84,53.9-79.94,23.1-23.1,50-41.23,79.94-53.9,31-13.11,63.94-19.76,97.89-19.76M258.5,0C115.73,0,0,115.73,0,258.5c0,.17,0,.33,0,.5h516.99c0-.17,0-.33,0-.5C517,115.73,401.27,0,258.5,0h0Z"/>
    </g>
    <g>
      <path d="M332.5,451.5c-35.37,0-67.18-38.97-79.62-97.23,24.28-14.73,56.21-35.62,56.53-35.84l4.92-3.22-65.88-35.54c6.23-72.66,42.13-127.17,84.05-127.17,46.87,0,85,67.07,85,149.5s-38.13,149.5-85,149.5Z"/>
      <path d="M332.5,156c21.04,0,41.11,14.67,56.52,41.32,16.11,27.85,24.98,65.03,24.98,104.68s-8.87,76.83-24.98,104.68c-15.41,26.64-35.48,41.32-56.52,41.32-16.52,0-32.52-9.07-46.27-26.23-13.12-16.37-23.47-39.6-29.39-65.81,24.02-14.66,54.18-34.39,54.5-34.6l9.83-6.44-10.34-5.58-58.68-31.65c3.19-33.52,12.95-64.13,27.67-86.6,14.83-22.63,33.54-35.09,52.68-35.09M332.5,149c-44.89,0-81.97,57.78-87.72,132.66l62.72,33.84s-33.83,22.15-58.55,37.06c12.08,59.65,44.92,102.44,83.55,102.44,48.88,0,88.5-68.5,88.5-153s-39.62-153-88.5-153h0Z"/>
    </g>
    <path d="M795.11,22.54c31.94,0,62.91,6.25,92.05,18.58,28.16,11.91,53.45,28.97,75.18,50.69,21.73,21.73,38.78,47.02,50.69,75.18,12.33,29.14,18.58,60.11,18.58,92.05s-6.25,62.91-18.58,92.05c-11.91,28.16-28.97,53.45-50.69,75.18-21.73,21.73-47.02,38.78-75.18,50.69-29.14,12.33-60.11,18.58-92.05,18.58s-62.91-6.25-92.05-18.58c-28.16-11.91-53.45-28.97-75.18-50.69-21.73-21.73-38.78-47.02-50.69-75.18-12.33-29.14-18.58-60.11-18.58-92.05s6.25-62.91,18.58-92.05c11.91-28.16,28.97-53.45,50.69-75.18,21.73-21.73,47.02-38.78,75.18-50.69,29.14-12.33,60.11-18.58,92.05-18.58M795.11.54c-142.77,0-258.5,115.73-258.5,258.5s115.73,258.5,258.5,258.5,258.5-115.73,258.5-258.5S937.87.54,795.11.54h0Z"/>
    <g>
      <path d="M540.12,256.04c.77-66.99,27.22-129.86,74.67-177.31,48.16-48.16,112.2-74.69,180.31-74.69s132.15,26.52,180.31,74.69c47.45,47.45,73.9,110.32,74.67,177.31h-509.96Z"/>
      <path d="M795.11,7.54c33.96,0,66.89,6.65,97.89,19.76,29.95,12.67,56.84,30.8,79.94,53.9,23.1,23.1,41.23,50,53.9,79.94,12.27,29.02,18.89,59.73,19.68,91.39h-502.84c.79-31.66,7.41-62.37,19.68-91.39,12.67-29.95,30.8-56.84,53.9-79.94,23.1-23.1,50-41.23,79.94-53.9,31-13.11,63.94-19.76,97.89-19.76M795.11.54c-142.77,0-258.5,115.73-258.5,258.5,0,.17,0,.33,0,.5h516.99c0-.17,0-.33,0-.5C1053.61,116.27,937.87.54,795.11.54h0Z"/>
    </g>
    <g>
      <path d="M869.11,452.04c-35.37,0-67.18-38.97-79.62-97.23,24.28-14.74,56.21-35.62,56.53-35.84l4.92-3.22-65.88-35.54c6.23-72.66,42.13-127.17,84.05-127.17,46.87,0,85,67.07,85,149.5s-38.13,149.5-85,149.5Z"/>
      <path d="M869.11,156.54c21.04,0,41.11,14.67,56.52,41.32,16.11,27.85,24.98,65.03,24.98,104.68s-8.87,76.83-24.98,104.68c-15.41,26.64-35.48,41.32-56.52,41.32-16.52,0-32.52-9.07-46.27-26.23-13.12-16.37-23.47-39.6-29.39-65.81,24.02-14.66,54.18-34.39,54.5-34.6l9.83-6.44-10.34-5.58-58.68-31.65c3.19-33.52,12.95-64.13,27.67-86.6,14.83-22.63,33.54-35.09,52.68-35.09M869.11,149.54c-44.89,0-81.97,57.78-87.72,132.66l62.72,33.84s-33.83,22.15-58.55,37.06c12.08,59.65,44.92,102.44,83.55,102.44,48.88,0,88.5-68.5,88.5-153s-39.62-153-88.5-153h0Z"/>
    </g>
  </g>
</svg>