<?xml version="1.0" encoding="UTF-8"?>
<svg id="Layer_2" xmlns="http://www.w3.org/2000/svg" viewBox="0 0 1329.56 817.47">
  <defs>
    <style>
      .cls-1 {
        fill: #fff;
      }

      .cls-2 {
        fill: none;
        stroke: #fff;
        stroke-miterlimit: 10;
        stroke-width: 41px;
      }
    </style>
  </defs>
  <g id="Layer_1-2" data-name="Layer_1">
    <ellipse class="cls-2" cx="320.31" cy="408.74" rx="299.81" ry="388.24"/>
    <path class="cls-1" d="M498.39,433.17c0,98.27-45.29,177.93-101.15,177.93-47.95,0-88.11-58.69-98.52-137.47,38.16-19.61,90.24-46.97,90.24-46.97l-88.58-44.91c1.7-9.9,3.87-19.44,6.48-28.53H83.07c-2.26,18.04-3.46,36.59-3.46,55.51,0,180.86,107.77,327.47,240.7,327.47s240.7-146.61,240.7-327.47c0-18.92-1.2-37.46-3.46-55.51h-69.92c6.88,24.04,10.77,51.19,10.77,79.94Z"/>
    <ellipse class="cls-2" cx="1009.26" cy="408.74" rx="299.81" ry="388.24"/>
    <path class="cls-1" d="M1187.34,433.17c0,98.27-45.29,177.93-101.15,177.93-47.95,0-88.11-58.69-98.52-137.47,38.16-19.61,90.24-46.97,90.24-46.97l-88.58-44.91c1.7-9.9,3.87-19.44,6.48-28.53h-223.79c-2.26,18.04-3.46,36.59-3.46,55.51,0,180.86,107.77,327.47,240.7,327.47s240.7-146.61,240.7-327.47c0-18.92-1.2-37.46-3.46-55.51h-69.92c6.88,24.04,10.77,51.19,10.77,79.94Z"/>
  </g>
</svg>