<?xml version="1.0" encoding="UTF-8"?>
<svg id="Layer_2" xmlns="http://www.w3.org/2000/svg" viewBox="0 0 1324.12 826.47">
  <defs>
    <style>
		.cls-1 {
		fill: none;
		stroke-width: 50px;
		}

		.cls-1, .cls-2 {
		stroke: white;
		stroke-miterlimit: 10;
		}

		.cls-2 {
		fill: white;
		stroke-width: 22px;
		}
	</style>
  </defs>
  <g id="Layer_1-2" data-name="Layer_1">
    <ellipse class="cls-1" cx="324.81" cy="413.24" rx="299.81" ry="388.24"/>
    <path class="cls-2" d="M412.04,245.85c-51.83,0-95.62,60.25-109.84,142.97l100.45,50.75s-59.07,30.91-102.34,53.08c11.81,89.01,57.35,155.34,111.73,155.34,63.35,0,114.71-90.02,114.71-201.06s-51.36-201.06-114.71-201.06ZM454.87,377.08c-22.14,0-40.08-17.37-40.08-38.79s17.95-38.79,40.08-38.79,40.08,17.37,40.08,38.79-17.95,38.79-40.08,38.79Z"/>
    <path class="cls-2" d="M562.45,384.36c-12.62-168.17-114.2-299.23-237.64-299.23S100.23,215.62,87.25,383.25c19.5-18.8,239.58-220.71,475.2,1.11Z"/>
    <ellipse class="cls-1" cx="999.32" cy="413.24" rx="299.81" ry="388.24"/>
    <path class="cls-2" d="M1086.55,245.85c-51.83,0-95.62,60.25-109.84,142.97l100.45,50.75s-59.07,30.91-102.34,53.08c11.81,89.01,57.35,155.34,111.73,155.34,63.35,0,114.71-90.02,114.71-201.06s-51.36-201.06-114.71-201.06ZM1129.38,377.08c-22.14,0-40.08-17.37-40.08-38.79s17.95-38.79,40.08-38.79,40.08,17.37,40.08,38.79-17.95,38.79-40.08,38.79Z"/>
    <path class="cls-2" d="M1236.96,384.36c-12.62-168.17-114.2-299.23-237.64-299.23s-224.58,130.49-237.56,298.12c19.5-18.8,239.58-220.71,475.2,1.11Z"/>
  </g>
</svg>