<?xml version="1.0" encoding="UTF-8"?>
<svg id="Layer_2" xmlns="http://www.w3.org/2000/svg" viewBox="0 0 1324.37 817.47">
  <defs>
    <style>
      .cls-1 {
        fill: #fff;
      }

      .cls-2 {
        fill: none;
        stroke: #fff;
        stroke-miterlimit: 10;
        stroke-width: 41px;
      }
    </style>
  </defs>
  <g id="Layer_1-2" data-name="Layer_1">
    <ellipse class="cls-2" cx="320.31" cy="408.74" rx="299.81" ry="388.24"/>
    <path class="cls-1" d="M389.05,680.71c-131.88,0-238.79-147.79-238.79-330.1,0-99.19,31.65-188.14,81.74-248.65-88.17,48.54-150.48,167.6-150.48,306.79,0,182.31,106.91,330.1,238.79,330.1,60.13,0,115.06-30.74,157.04-81.45-27.32,15.04-57.11,23.32-88.3,23.32Z"/>
    <path class="cls-1" d="M549.45,415.8c-127.39,14.19-135.91,25.69-146.42,197.67-10.51-171.99-19.03-183.49-146.42-197.67,127.39-14.19,135.91-25.69,146.42-197.67,10.51,171.99,19.03,183.49,146.42,197.67Z"/>
    <path class="cls-1" d="M365.95,527.48c-24.27,13.5-31.18,24.45-39.71,62.87-8.53-38.42-15.44-49.37-39.71-62.87,24.27-13.5,31.18-24.45,39.71-62.87,8.53,38.42,15.44,49.37,39.71,62.87Z"/>
    <path class="cls-1" d="M515.53,334c-18.2,9.24-23.38,16.73-29.78,43.02-6.4-26.29-11.58-33.78-29.78-43.02,18.2-9.24,23.38-16.73,29.78-43.02,6.4,26.29,11.58,33.78,29.78,43.02Z"/>
    <ellipse class="cls-2" cx="1004.06" cy="408.74" rx="299.81" ry="388.24"/>
    <path class="cls-1" d="M1072.81,680.71c-131.88,0-238.79-147.79-238.79-330.1,0-99.19,31.65-188.14,81.74-248.65-88.17,48.54-150.48,167.6-150.48,306.79,0,182.31,106.91,330.1,238.79,330.1,60.13,0,115.06-30.74,157.04-81.45-27.32,15.04-57.11,23.32-88.3,23.32Z"/>
    <path class="cls-1" d="M1233.21,415.8c-127.39,14.19-135.91,25.69-146.42,197.67-10.51-171.99-19.03-183.49-146.42-197.67,127.39-14.19,135.91-25.69,146.42-197.67,10.51,171.99,19.03,183.49,146.42,197.67Z"/>
    <path class="cls-1" d="M1049.71,527.48c-24.27,13.5-31.18,24.45-39.71,62.87-8.53-38.42-15.44-49.37-39.71-62.87,24.27-13.5,31.18-24.45,39.71-62.87,8.53,38.42,15.44,49.37,39.71,62.87Z"/>
    <path class="cls-1" d="M1199.29,334c-18.2,9.24-23.38,16.73-29.78,43.02-6.4-26.29-11.58-33.78-29.78-43.02,18.2-9.24,23.38-16.73,29.78-43.02,6.4,26.29,11.58,33.78,29.78,43.02Z"/>
  </g>
</svg>